<svg width="80" height="80" viewBox="0 0 80 80" fill="none" xmlns="http://www.w3.org/2000/svg">
<path d="M9.53906 55.9452C9.95 55.9452 10.3531 55.7796 10.6438 55.4874C10.9359 55.1968 11.1016 54.795 11.1016 54.3827C11.1016 53.9718 10.9359 53.5686 10.6438 53.278C10.3531 52.9875 9.95 52.8202 9.53906 52.8202C9.12813 52.8202 8.72656 52.9874 8.43438 53.278C8.14375 53.5686 7.97656 53.9718 7.97656 54.3827C7.97656 54.7952 8.14375 55.1983 8.43438 55.4874C8.72656 55.7796 9.12813 55.9452 9.53906 55.9452Z" fill="#503AE7"/>
<path d="M37.983 34.5481C38.5931 33.938 38.5931 32.9486 37.983 32.3383C37.3728 31.7283 36.3835 31.7283 35.7731 32.3383C35.478 32.6335 35.0856 32.7961 34.6683 32.7961C34.251 32.7961 33.8586 32.6335 33.5635 32.3383C32.9533 31.7283 31.9639 31.7283 31.3536 32.3383C30.7435 32.9485 30.7435 33.9378 31.3536 34.5481C32.2675 35.462 33.4678 35.9188 34.6681 35.9188C35.8685 35.9188 37.0692 35.462 37.983 34.5481Z" fill="#503AE7"/>
<path d="M72.0442 70.0146V65.2694C76.0902 63.4674 78.9192 59.4108 78.9192 54.7035V43.4433C78.9192 37.0677 73.7323 31.8808 67.3567 31.8808C60.9811 31.8808 55.7942 37.0677 55.7942 43.4433V49.1725C51.5966 46.506 46.8433 44.9886 41.8353 44.7278V42.1718C46.0519 39.7011 48.89 35.1221 48.89 29.8921V25.6983C48.8512 25.7619 48.9366 25.6418 48.89 25.6983C50.4877 23.0758 51.4611 19.8788 51.4611 16.7932V1.56238C51.4611 0.699565 50.7616 -0.00012207 49.8986 -0.00012207H31.7495C24.0986 -0.00012207 17.8742 6.22441 17.8742 13.8753V16.7933C17.8742 19.8789 18.8477 23.0758 20.4453 25.6985C20.3988 25.6419 20.4841 25.7621 20.4453 25.6985V29.8922C20.4453 35.1222 23.2834 39.7011 27.5 42.1719V44.7293C25.7967 44.8207 24.1103 45.0625 22.4598 45.4466C22.4486 45.4494 22.437 45.4511 22.4258 45.4541C19.5712 46.1218 16.825 47.2178 14.2897 48.7171C13.5469 49.1563 13.3008 50.1144 13.74 50.8572C14.0316 51.3505 14.552 51.6247 15.0864 51.6247C15.3567 51.6247 15.6306 51.5544 15.8803 51.4068C17.6583 50.3553 19.5531 49.5275 21.5197 48.9313C22.7683 55.0841 28.2178 59.6697 34.6677 59.6697C41.1162 59.6697 46.5728 55.0755 47.8173 48.9178C50.6684 49.7807 53.3553 51.1408 55.7942 52.9682V54.7035C55.7942 59.4108 58.6233 63.4672 62.6692 65.2694V70.0146C59.6798 70.1838 57.1017 71.9155 55.7416 74.4047V66.5624C55.7416 65.6996 55.042 64.9999 54.1791 64.9999C53.3161 64.9999 52.6166 65.6996 52.6166 66.5624V76.8749H16.7188V66.5624C16.7188 65.6996 16.0192 64.9999 15.1562 64.9999C14.2933 64.9999 13.5938 65.6996 13.5938 66.5624V76.8749H3.125V73.7499C3.125 69.1652 4.33672 64.66 6.62906 60.7218C7.06313 59.9761 6.81047 59.0194 6.06469 58.5853C5.31875 58.1514 4.36219 58.4038 3.92828 59.1497C1.35844 63.5647 0 68.6135 0 73.7499V78.4374C0 79.3002 0.699531 79.9999 1.5625 79.9999H78.4375C79.3005 79.9999 80 79.3002 80 78.4374C80 73.9468 76.4733 70.2652 72.0442 70.0146ZM20.9992 13.8753C20.9992 7.94753 25.8219 3.12488 31.7495 3.12488H48.3361V16.7933C48.3361 18.3407 48.0755 19.8668 47.5716 21.3088C46.9313 20.0553 46.3595 18.7669 45.862 17.456C45.6275 16.8377 44.8489 16.4707 44.2131 16.4707C44.0884 16.4707 44.3391 16.4394 44.2131 16.4707C41.1711 17.2264 37.8344 17.6328 34.6677 17.6328C31.5014 17.6328 28.3533 17.2496 25.3108 16.4936C24.5434 16.3033 23.7537 16.7163 23.4731 17.4558C22.9758 18.7666 22.4039 20.055 21.7636 21.3086C21.2597 19.8666 20.9991 18.3405 20.9991 16.7932L20.9992 13.8753ZM23.5703 29.8922V24.5277C24.4397 23.0135 25.2169 21.443 25.8891 19.8341C28.7605 20.4475 31.7073 20.758 34.6677 20.758C37.6284 20.758 40.5752 20.4477 43.4464 19.8343C44.1186 21.4433 44.8958 23.0136 45.765 24.5277V29.8922C45.765 36.0113 40.7867 40.9894 34.6677 40.9894C28.5486 40.9894 23.5703 36.0113 23.5703 29.8922ZM34.6677 44.1144C36.0716 44.1144 37.4283 43.9089 38.7103 43.5282V46.2499L38.7105 46.2516C38.7105 48.4808 36.8969 50.2946 34.6677 50.2946C32.4384 50.2946 30.625 48.481 30.625 46.2519V46.2499V43.5282C31.907 43.9089 33.2638 44.1144 34.6677 44.1144ZM34.6677 56.5447C29.6844 56.5447 25.4809 52.9766 24.5631 48.2064C25.592 48.0258 26.6336 47.9082 27.6823 47.8525C28.4117 51.0364 31.2656 53.4197 34.6677 53.4197C38.0708 53.4197 40.9255 51.0349 41.6538 47.8494C42.7075 47.9038 43.7486 48.02 44.7736 48.1977C43.8583 52.9707 39.6494 56.5447 34.6677 56.5447ZM58.9192 48.5533H75.7942V51.6783H58.9192V48.5533ZM67.3567 35.0058C72.0092 35.0058 75.7942 38.791 75.7942 43.4433V45.4283H58.9192V43.4433C58.9192 38.791 62.7044 35.0058 67.3567 35.0058ZM58.9219 54.8033H75.7919C75.738 59.4097 71.9759 63.141 67.3569 63.141C62.7378 63.141 58.9758 59.4097 58.9219 54.8033ZM68.9192 66.2661V69.9999H65.7942V66.2661H68.9192ZM58.073 76.8749C58.7417 74.7057 60.7652 73.1249 63.1511 73.1249H71.5625C73.9483 73.1249 75.9719 74.7057 76.6406 76.8749H58.073Z" fill="#503AE7"/>
<path d="M61.1056 24.1574C60.4954 24.7676 60.4954 25.7569 61.1056 26.3673C61.7157 26.9773 62.7051 26.9773 63.3153 26.3673C64.4181 25.2644 65.8842 24.6573 67.4437 24.6573C69.0031 24.6573 70.4693 25.2646 71.572 26.3673C71.8771 26.6723 72.277 26.8249 72.6768 26.8249C73.0767 26.8249 73.4767 26.6723 73.7817 26.3673C74.3918 25.7571 74.392 24.7677 73.7817 24.1574C72.0887 22.4644 69.8378 21.5321 67.4435 21.5321C65.0495 21.5323 62.7985 22.4644 61.1056 24.1574Z" fill="#503AE7"/>
<path d="M58.7091 21.9139C61.019 19.6039 64.0902 18.3317 67.3569 18.3317C70.6237 18.3317 73.6949 19.6039 76.0048 21.9139C76.3099 22.2189 76.7098 22.3716 77.1096 22.3716C77.5095 22.3716 77.9095 22.2189 78.2145 21.9139C78.8246 21.3038 78.8248 20.3144 78.2145 19.7041C75.3143 16.8038 71.4584 15.2067 67.3568 15.2067C63.2552 15.2067 59.3993 16.8039 56.4991 19.7041C55.889 20.3142 55.889 21.3036 56.4991 21.9139C57.1096 22.5239 58.099 22.5239 58.7091 21.9139Z" fill="#503AE7"/>
</svg>
