<svg width="69" height="80" viewBox="0 0 69 80" fill="none" xmlns="http://www.w3.org/2000/svg">
<path d="M34.8404 50.6665H32.7996C32.7633 50.6665 32.7338 50.6371 32.7338 50.6009V47.4994C32.7338 46.8526 32.2095 46.3282 31.5627 46.3282C30.9159 46.3282 30.3916 46.8526 30.3916 47.4994V50.6009C30.3916 51.9286 31.4718 53.0087 32.7996 53.0087H34.8404C36.3994 53.0087 37.6678 54.2771 37.6678 55.8361V66.4781C37.6678 66.7889 37.5702 67.0854 37.3854 67.3354L32.8352 73.4974C32.6863 73.6989 32.6061 73.9428 32.6061 74.1931V78.8288C32.6061 79.4755 33.1304 79.9999 33.7772 79.9999C34.424 79.9999 34.9483 79.4755 34.9483 78.8288V74.5786L39.2695 68.7268C39.7539 68.071 40.0098 67.2934 40.0098 66.4781V55.8361C40.01 52.9857 37.6909 50.6665 34.8404 50.6665Z" fill="#503AE7"/>
<path d="M30.3912 42.5084C30.3912 43.1552 30.9155 43.6795 31.5623 43.6795C32.209 43.6795 32.7334 43.1552 32.7334 42.5084V31.2093C32.7334 28.5284 30.5523 26.3473 27.8716 26.3473C25.1908 26.3473 23.0098 28.5284 23.0098 31.2093V41.7814C22.429 41.4858 21.7729 41.3179 21.0779 41.3179H19.9021C18.5193 41.3179 17.2884 41.9786 16.5067 43.0004C15.7547 42.3426 14.7717 41.9425 13.6965 41.9425H12.5207C11.0079 41.9425 9.6771 42.7332 8.91745 43.9225C8.19605 43.3669 7.29383 43.0355 6.31509 43.0355H5.1393C2.78257 43.0355 0.865234 44.9529 0.865234 47.3095V57.3999C0.865234 58.0466 1.38958 58.571 2.03634 58.571C2.6831 58.571 3.20745 58.0466 3.20745 57.3999V47.3095C3.20745 46.2444 4.07406 45.3778 5.1393 45.3778H6.31509C7.38033 45.3778 8.24695 46.2444 8.24695 47.3095V47.6146C8.24695 48.2613 8.77129 48.7857 9.41806 48.7857C10.0648 48.7857 10.5892 48.2613 10.5892 47.6146V46.2164C10.5892 45.1513 11.4558 44.2847 12.5209 44.2847H13.6967C14.7619 44.2847 15.6285 45.1513 15.6285 46.2164V47.6146C15.6285 48.2613 16.1529 48.7857 16.7996 48.7857C17.4464 48.7857 17.9707 48.2613 17.9707 47.6146V46.2164C17.9707 46.0775 17.9635 45.9402 17.9504 45.8045C17.9631 45.7355 17.9707 45.6646 17.9707 45.5918C17.9707 44.5268 18.8373 43.6601 19.9024 43.6601H21.0782C22.1433 43.6601 23.0099 44.5268 23.0099 45.5918V45.5934V47.6146C23.0099 48.2613 23.5343 48.7857 24.181 48.7857C24.8278 48.7857 25.3521 48.2613 25.3521 47.6146V31.2093C25.3521 29.8199 26.4825 28.6895 27.8717 28.6895C29.261 28.6895 30.3913 29.8199 30.3913 31.2093V42.5084H30.3912Z" fill="#503AE7"/>
<path d="M3.90355 68.9699C3.45463 68.3976 3.20745 67.6821 3.20745 66.9551V62.3908C3.20745 61.744 2.6831 61.2197 2.03634 61.2197C1.38958 61.2197 0.865234 61.744 0.865234 62.3908V66.9551C0.865234 68.2038 1.2898 69.4329 2.06054 70.4155L3.79191 72.6228V78.8289C3.79191 79.4757 4.31625 80 4.96301 80C5.60977 80 6.13412 79.4757 6.13412 78.8289V72.2184C6.13412 71.9564 6.04621 71.7018 5.88444 71.4956L3.90355 68.9699Z" fill="#503AE7"/>
<path d="M56.1528 13.6958L50.0547 11.6309L46.3745 7.95031C45.9171 7.49296 45.1756 7.4928 44.7184 7.95031C44.2609 8.40767 44.2609 9.14906 44.7182 9.60641L47.7639 12.6522L41.3661 19.0501C40.9087 19.5074 40.9087 20.249 41.3661 20.7062C41.5948 20.9348 41.8946 21.0492 42.1943 21.0492C42.4939 21.0492 42.7937 20.9349 43.0225 20.7062L49.7339 13.9948L55.4017 15.914C55.7808 16.0423 55.8923 16.3582 55.9226 16.488C55.9529 16.6177 55.9929 16.9503 55.7099 17.2334L36.8882 36.0555C36.6862 36.2575 36.4562 36.2919 36.2966 36.2856C35.6544 36.2566 35.1046 36.7601 35.0772 37.4064C35.0499 38.0526 35.5518 38.5986 36.1981 38.6258C36.244 38.6278 36.2897 38.6288 36.3353 38.6288C37.1702 38.6288 37.9502 38.3062 38.5445 37.7119L43.9937 32.2625C45.0001 33.1553 46.2811 33.6442 47.6379 33.6442C49.1069 33.6442 50.488 33.0721 51.5266 32.0336L51.6874 31.8729C53.752 29.8081 53.8277 26.497 51.9165 24.3397L57.3659 18.8903C58.1386 18.1174 58.4517 17.0203 58.203 15.956C57.9545 14.8912 57.188 14.0465 56.1528 13.6958ZM50.0315 30.2162L49.8706 30.3768C49.2743 30.9733 48.4814 31.3017 47.6379 31.3017C46.9224 31.3017 46.2432 31.0653 45.6896 30.6296L50.2838 26.0355C51.2558 27.2737 51.1715 29.0761 50.0315 30.2162Z" fill="#503AE7"/>
<path d="M22.3062 8.6397C19.8485 13.603 20.6796 19.7944 24.8068 23.9215L24.8419 23.9568C25.0707 24.186 25.3708 24.3008 25.6709 24.3008C25.9702 24.3008 26.2694 24.1868 26.498 23.9587C26.9558 23.5018 26.9568 22.7604 26.4999 22.3026L26.4638 22.2665C22.2022 18.0049 22.2022 11.0711 26.4638 6.80949C28.4119 4.86124 30.9997 3.72808 33.7504 3.61846C36.485 3.50947 39.1402 4.41731 41.2247 6.1746C41.7193 6.59151 42.458 6.52874 42.8749 6.03391C43.2918 5.53939 43.2289 4.80065 42.7344 4.38374C40.2015 2.24874 36.9761 1.14587 33.6572 1.27813C31.7702 1.35323 29.9467 1.82542 28.2904 2.64801L26.8806 1.23815C25.2296 -0.412795 22.5434 -0.412639 20.8925 1.23815C20.0927 2.03794 19.6523 3.1013 19.6523 4.23228C19.6523 5.36325 20.0927 6.42662 20.8925 7.22625L22.3062 8.6397ZM22.5489 2.89425C23.2865 2.15661 24.487 2.15661 25.2246 2.89425L26.2411 3.91077C25.7379 4.28802 25.2585 4.70228 24.8077 5.15308C24.3535 5.60731 23.9414 6.08793 23.5668 6.58776L22.5489 5.56968C22.1915 5.21242 21.9947 4.73726 21.9947 4.23197C21.9947 3.72667 22.1915 3.25167 22.5489 2.89425Z" fill="#503AE7"/>
<path d="M37.8954 22.5215L37.2063 23.2106C36.7489 23.6679 36.7489 24.4095 37.2063 24.8667C37.4351 25.0953 37.7349 25.2097 38.0345 25.2097C38.3342 25.2097 38.634 25.0954 38.8627 24.8667L39.5518 24.1776C40.0091 23.7202 40.0091 22.9787 39.5518 22.5215C39.0943 22.0641 38.3529 22.0641 37.8954 22.5215Z" fill="#503AE7"/>
<path d="M12.598 24.8208C12.9036 24.8208 13.209 24.7018 13.4385 24.4651C13.8889 24.0008 13.8778 23.2595 13.4134 22.8091C12.0833 21.5187 11.351 19.7927 11.351 17.949C11.351 16.1054 12.0835 14.3792 13.4136 13.0888C13.8778 12.6385 13.8889 11.8971 13.4385 11.4329C12.9882 10.9685 12.2468 10.9575 11.7826 11.4079C9.99392 13.1431 9.00879 15.4661 9.00879 17.949C9.00879 20.4319 9.99392 22.7549 11.7826 24.4902C12.0101 24.7109 12.3041 24.8208 12.598 24.8208Z" fill="#503AE7"/>
<path d="M15.2868 21.3529C15.5059 21.5358 15.7722 21.6251 16.037 21.6251C16.3721 21.6251 16.7048 21.4819 16.9365 21.2048C17.3511 20.7082 17.2848 19.9698 16.7884 19.5552C16.3099 19.1556 16.0356 18.5702 16.0356 17.9491C16.0356 17.3279 16.3099 16.7424 16.7884 16.3428C17.2848 15.9282 17.3511 15.1896 16.9365 14.6932C16.5218 14.1967 15.7832 14.1305 15.287 14.5451C14.2742 15.3909 13.6934 16.6317 13.6934 17.9489C13.6932 19.2665 14.2741 20.5071 15.2868 21.3529Z" fill="#503AE7"/>
<path d="M65.9905 11.4078C65.526 10.9573 64.7846 10.9687 64.3346 11.4327C63.8841 11.897 63.8953 12.6383 64.3596 13.0887C65.6896 14.3792 66.4221 16.1053 66.4221 17.9489C66.4221 19.7927 65.6896 21.5186 64.3596 22.809C63.8953 23.2593 63.8841 24.0007 64.3346 24.465C64.5643 24.7017 64.8695 24.8205 65.1753 24.8205C65.469 24.8205 65.7632 24.7106 65.9907 24.4899C67.7793 22.7545 68.7645 20.4315 68.7645 17.9488C68.7645 15.466 67.7793 13.1433 65.9905 11.4078Z" fill="#503AE7"/>
<path d="M62.4864 14.5451C61.9902 14.1306 61.2516 14.1967 60.837 14.6932C60.4224 15.1896 60.4886 15.9282 60.985 16.3428C61.4633 16.7424 61.7378 17.3279 61.7378 17.9491C61.7378 18.5702 61.4633 19.1556 60.985 19.5551C60.4885 19.9696 60.4221 20.7082 60.8367 21.2046C61.0683 21.4821 61.401 21.6251 61.7363 21.6251C62.0009 21.6251 62.2672 21.5359 62.4862 21.3529C63.4992 20.5071 64.0802 19.2665 64.0802 17.9489C64.08 16.6317 63.4992 15.3909 62.4864 14.5451Z" fill="#503AE7"/>
</svg>
