<svg width="86" height="80" viewBox="0 0 86 80" fill="none" xmlns="http://www.w3.org/2000/svg">
<path d="M36.7608 34.6179L36.7608 34.6178C36.1371 34.2579 35.7529 33.5924 35.7529 32.8724V17.03C35.7529 16.3099 36.1371 15.6446 36.7608 15.2844C37.3845 14.9242 38.1528 14.9242 38.7765 15.2844L38.7765 15.2844L52.4965 23.2056L52.4965 23.2056C53.1202 23.5656 53.5044 24.2311 53.5044 24.9512C53.5044 25.6713 53.1202 26.3366 52.4965 26.6968C52.4965 26.6968 52.4965 26.6968 52.4965 26.6969L38.7765 34.6179L38.7765 34.6179C38.4647 34.7979 38.1167 34.888 37.7687 34.888C37.4206 34.888 37.0728 34.798 36.7608 34.6179ZM40.5344 20.9541L39.7844 20.5211V21.3871V28.5148V29.3809L40.5344 28.9479L46.7072 25.3841L47.4572 24.9511L46.7072 24.518L40.5344 20.9541Z" fill="#503AE7" stroke="#F4F2FF"/>
<path d="M80.2149 59.5997L79.7812 60.0239L80.2804 60.3686C83.3537 62.4904 85.3704 66.033 85.3704 70.0379V77.4843C85.3704 78.5975 84.4678 79.5 83.3546 79.5C82.2414 79.5 81.3389 78.5975 81.3389 77.4843V70.0379C81.3389 65.7852 77.8798 62.3261 73.6271 62.3261C69.3745 62.3261 65.9154 65.7852 65.9154 70.0379V77.4843C65.9154 78.5975 65.0128 79.5 63.8996 79.5C62.7864 79.5 61.8839 78.5975 61.8839 77.4843V70.0379C61.8839 66.0329 63.9006 62.4902 66.9738 60.3688L67.4731 60.0241L67.0394 59.5999C65.3867 57.9832 64.3252 55.7687 64.2099 53.3105L64.1876 52.8339H63.7104H52.844H52.3668L52.3445 53.3105C52.2294 55.7687 51.1678 57.9832 49.515 59.5999L49.0813 60.0241L49.5806 60.3688C52.654 62.4904 54.6707 66.033 54.6707 70.0379V77.4843C54.6707 78.5975 53.7682 79.5 52.655 79.5C51.5418 79.5 50.6392 78.5975 50.6392 77.4843V70.0379C50.6392 65.7852 47.1801 62.3261 42.9275 62.3261C38.6748 62.3261 35.2157 65.7852 35.2157 70.0379V77.4843C35.2157 78.5975 34.3132 79.5 33.2 79.5C32.0868 79.5 31.1842 78.5975 31.1842 77.4843V70.0379C31.1842 66.033 33.2009 62.4904 36.2743 60.3688L36.7736 60.0241L36.3399 59.5999C34.6872 57.9833 33.6257 55.7688 33.5104 53.3105L33.4881 52.8339H33.011H22.1599H21.6828L21.6605 53.3105C21.5452 55.7687 20.4837 57.9832 18.831 59.5999L18.3973 60.0241L18.8966 60.3688C21.9698 62.4904 23.9865 66.033 23.9865 70.0379V77.4843C23.9865 78.5975 23.084 79.5 21.9707 79.5C20.8575 79.5 19.955 78.5975 19.955 77.4843V70.0379C19.955 65.7852 16.4959 62.3261 12.2432 62.3261C7.99056 62.3261 4.53147 65.7852 4.53147 70.0379V77.4843C4.53147 78.5975 3.62895 79.5 2.51573 79.5C1.40252 79.5 0.5 78.5975 0.5 77.4843V70.0379C0.5 66.0329 2.51668 62.4902 5.59005 60.3688L6.08938 60.0241L5.65565 59.5999C3.90347 57.886 2.81481 55.5002 2.81481 52.8638C2.81481 48.847 5.34187 45.4082 8.89182 44.0531L9.21349 43.9302V43.5859V2.51573C9.21349 1.40252 10.116 0.5 11.2292 0.5H74.6257C75.7389 0.5 76.6414 1.40252 76.6414 2.51573V43.5797V43.9247L76.9639 44.0471C80.5218 45.3983 83.0557 48.8413 83.0557 52.8636C83.0557 55.5 81.9671 57.8858 80.2149 59.5997ZM72.61 5.03147V4.53147H72.11H13.7451H13.2451V5.03147V43.0487V43.4783L13.6698 43.543C16.6938 44.0038 19.2508 45.9096 20.6139 48.5328L20.7539 48.8023H21.0575H34.1133H34.417L34.557 48.5328C36.1298 45.506 39.2917 43.4352 42.9275 43.4352C46.5633 43.4352 49.7251 45.506 51.2979 48.5328L51.4379 48.8023H51.7416H64.813H65.1167L65.2567 48.5328C66.6177 45.9137 69.1684 44.01 72.1861 43.5453L72.61 43.48V43.0511V5.03147ZM68.23 52.8636C68.23 55.84 70.6508 58.2607 73.6271 58.2607C76.6037 58.2607 79.0243 55.8401 79.0241 52.8636C79.0241 49.8874 76.6035 47.4667 73.6271 47.4667C70.6508 47.4667 68.23 49.8872 68.23 52.8636ZM42.9275 58.2607C45.9038 58.2607 48.3246 55.8402 48.3246 52.8636C48.3246 49.8874 45.9038 47.4667 42.9275 47.4667C39.9511 47.4667 37.5303 49.8872 37.5303 52.8636C37.5303 55.84 39.9511 58.2607 42.9275 58.2607ZM17.6402 52.8636C17.6402 49.8874 15.2196 47.4667 12.2432 47.4667C9.26686 47.4667 6.84628 49.8874 6.84628 52.8636C6.84628 55.8401 9.26686 58.2607 12.2432 58.2607C15.2196 58.2607 17.6402 55.8401 17.6402 52.8636Z" fill="#503AE7" stroke="#F4F2FF"/>
</svg>
