<svg width="480" height="480" viewBox="0 0 480 480" fill="none" xmlns="http://www.w3.org/2000/svg">
<rect x="42.5518" y="394.093" width="60.177" height="497.155" transform="rotate(-135 42.5518 394.093)" fill="#1AD993"/>
<path d="M343.472 143.916V161.83C343.436 191.959 332.43 221.068 312.467 243.832C292.504 266.596 264.918 281.492 234.757 285.797V340.972H289.114V376.801H144.16V340.972H198.518V285.797C168.357 281.492 140.771 266.596 120.808 243.832C100.845 221.068 89.8384 191.959 89.8027 161.83V143.916H126.041V161.83C126.041 185.586 135.586 208.369 152.576 225.166C169.566 241.964 192.61 251.401 216.637 251.401C240.665 251.401 263.709 241.964 280.699 225.166C297.689 208.369 307.234 185.586 307.234 161.83V143.916H343.472ZM216.637 215.573C231.054 215.573 244.88 209.911 255.074 199.832C265.268 189.753 270.995 176.083 270.995 161.83V72.2587C270.995 58.0053 265.268 44.3356 255.074 34.2569C244.88 24.1782 231.054 18.516 216.637 18.516C202.221 18.516 188.395 24.1782 178.201 34.2569C168.007 44.3356 162.28 58.0053 162.28 72.2587V161.83C162.28 176.083 168.007 189.753 178.201 199.832C188.395 209.911 202.221 215.573 216.637 215.573Z" fill="#14142B"/>
<rect x="45.1699" y="178.062" width="60.177" height="187.938" transform="rotate(-135 45.1699 178.062)" fill="#503AE7"/>
<rect x="239.746" y="480" width="60.177" height="339.769" transform="rotate(-135 239.746 480)" fill="#503AE7"/>
</svg>
