<svg width="114" height="120" viewBox="0 0 114 120" fill="none" xmlns="http://www.w3.org/2000/svg">
<circle cx="57" cy="62.0532" r="46.5403" transform="rotate(-15 57 62.0532)" fill="white"/>
<circle cx="73.2346" cy="20.113" r="16.4222" transform="rotate(-15 73.2346 20.113)" fill="#1AD993"/>
<path d="M67.6518 24.5842H69.9472V21.0779H73.339V18.7051H69.9472V15.1989H67.6518V18.7051H64.26V21.0779H67.6518V24.5842Z" fill="white"/>
<path d="M81.7126 13.0779H79.1031L75.8523 15.2055V17.7507L78.8594 15.802H78.9364V26.6521H81.7126V13.0779Z" fill="white"/>
<path d="M70.761 50.6927L71.3654 52.948C72.3774 56.7422 72.0203 60.7657 70.3594 64.2823C68.6985 67.7989 65.8449 70.5736 62.3206 72.0987L64.1818 79.045L70.7951 77.273L72.0037 81.7836L54.3683 86.509L53.1597 81.9984L59.773 80.2264L57.9117 73.28C54.0971 73.7214 50.2384 72.7453 47.0417 70.5302C43.8451 68.3152 41.5241 65.0093 40.5034 61.2174L39.8991 58.9621L44.3079 57.7808L44.9122 60.0361C45.7136 63.0268 47.6434 65.5839 50.2771 67.1447C52.9108 68.7056 56.0326 69.1425 58.9559 68.3592C61.8791 67.5759 64.3643 65.6367 65.8647 62.968C67.3651 60.2994 67.7579 57.12 66.9565 54.1293L66.3522 51.874L70.761 50.6927ZM57.7473 63.8486C59.5012 63.3786 60.9923 62.2151 61.8926 60.6139C62.7928 59.0127 63.0285 57.1051 62.5476 55.3107L59.5261 44.0342C59.0453 42.2398 57.8874 40.7055 56.3072 39.769C54.727 38.8325 52.8539 38.5704 51.0999 39.0403C49.346 39.5103 47.8549 40.6739 46.9546 42.275C46.0544 43.8762 45.8187 45.7838 46.2996 47.5782L49.3211 58.8547C49.8019 60.6492 50.9598 62.1834 52.54 63.1199C54.1202 64.0565 55.9933 64.3186 57.7473 63.8486Z" fill="#14142B"/>
</svg>
